<svg width="48" height="32" viewBox="0 0 48 32" fill="none" xmlns="http://www.w3.org/2000/svg">
<path d="M17.9016 9.53928V6.66515C18.1944 6.63612 18.4584 6.63612 18.7536 6.63612C26.6016 6.39903 31.7448 13.4513 31.7448 13.4513C31.7448 13.4513 26.1888 21.1858 20.2248 21.1858C19.428 21.1858 18.6648 21.0648 17.9016 20.7987V12.0578C20.9568 12.4448 21.5736 13.7755 23.3976 16.8576L27.4824 13.3908C27.4824 13.3908 24.4848 9.45218 19.488 9.45218C18.96 9.45218 18.4312 9.48121 17.9016 9.53928ZM17.9016 0V4.29667L18.7536 4.23618C29.6592 3.8491 36.7728 13.2432 36.7728 13.2432C36.7728 13.2432 28.6008 23.2881 20.1048 23.2881C19.3654 23.2917 18.6275 23.222 17.9016 23.0801V25.7485C18.4896 25.8066 19.1064 25.8671 19.7232 25.8671C27.6312 25.8671 33.3624 21.7785 38.9184 16.9786C39.8304 17.7189 43.5912 19.5261 44.3856 20.2955C39.1224 24.7397 26.8368 28.3275 19.8696 28.3275C19.2212 28.3312 18.5734 28.2908 17.9304 28.2065V32H48V0H17.9016ZM17.9016 20.8301V23.1115C10.5816 21.7785 8.5536 14.1045 8.5536 14.1045C8.5536 14.1045 12.0816 10.1925 17.9016 9.53928V12.0311H17.8704C14.8152 11.6441 12.4032 14.5472 12.4032 14.5472C12.4032 14.5472 13.788 19.4076 17.9016 20.8301ZM4.9056 13.7779C4.9056 13.7779 9.228 7.31836 17.9016 6.66515L17.8992 4.3257C8.2896 5.09503 0 13.2747 0 13.2747C0 13.2747 4.704 26.9921 17.9016 28.2356V25.7485C8.2008 24.5341 4.9056 13.7779 4.9056 13.7779Z" fill="black"/>
</svg>
